<svg xmlns="http://www.w3.org/2000/svg" width="134.279" height="126.964" viewBox="0 0 134.279 126.964">
  <g id="Grupo_82" data-name="Grupo 82" transform="translate(-87.263 -112.676)">
    <path id="Trazado_108" data-name="Trazado 108" d="M158.64,114.676h24.7v19.635h19.635v26.7H183.337v19.635h-26.7v-19.63H137v-26.7h21.643Z" fill="none" stroke="#799cca" stroke-linecap="round" stroke-linejoin="round" stroke-width="4"/>
    <path id="Trazado_109" data-name="Trazado 109" d="M162.633,174.646v-19.63H143v-14.7h21.642V120.677h12.7v19.635h19.635v14.7H177.337v19.634Z" fill="#f2490c"/>
    <path id="Trazado_110" data-name="Trazado 110" d="M157.657,213.828h7.64a36.413,36.413,0,0,0,20.454-6.285l2.308-1.564a4.714,4.714,0,0,0,1.5-6.212s-.08-.079-.227-.215a13.423,13.423,0,0,0-13.087-2.815,24.2,24.2,0,0,1-15.956-.634c-18.253-11.452-35.324-9.422-48.2-.25h0" fill="none" stroke="#799cca" stroke-linecap="round" stroke-linejoin="round" stroke-width="4"/>
    <path id="Trazado_111" data-name="Trazado 111" d="M190.588,199.328l11.366-4.551a32.366,32.366,0,0,1,6.321-1.847,13.144,13.144,0,0,1,5.717-.056,7.864,7.864,0,0,1,5.507,6.584h0a5.083,5.083,0,0,1-2.565,4.987l-34.385,19.312a43.93,43.93,0,0,1-22.98,5.058c-30.214-1.72-47.487-3.535-47.487-3.535" fill="none" stroke="#799cca" stroke-linecap="round" stroke-linejoin="round" stroke-width="4"/>
    <path id="Trazado_112" data-name="Trazado 112" d="M89.263,237.64h18.683a3.672,3.672,0,0,0,3.67-3.671V185.833a3.67,3.67,0,0,0-3.67-3.67H89.263" fill="none" stroke="#799cca" stroke-linecap="round" stroke-linejoin="round" stroke-width="4"/>
  </g>
</svg>
