<svg xmlns="http://www.w3.org/2000/svg" width="189.825" height="59.877" viewBox="0 0 189.825 59.877">
  <g id="Grupo_63" data-name="Grupo 63" transform="translate(-202.755 -122.8)">
    <g id="Grupo_58" data-name="Grupo 58">
      <path id="Trazado_77" data-name="Trazado 77" d="M207.95,181.29a5.469,5.469,0,0,0,2.139-.34l.354,1.313a6.37,6.37,0,0,1-2.493.414,5.314,5.314,0,0,1,0-10.625,6.116,6.116,0,0,1,2.493.429l-.354,1.3a6.205,6.205,0,0,0-2.139-.339,3.741,3.741,0,0,0-3.541,3.925A3.661,3.661,0,0,0,207.95,181.29Z" fill="#995eba"/>
      <path id="Trazado_78" data-name="Trazado 78" d="M218.38,178.339v.885h-5.429c.118,1.372.9,2.036,2.493,2.066a5.182,5.182,0,0,0,2.169-.443l.31,1.254a5.551,5.551,0,0,1-2.479.576c-2.479,0-4.161-1.447-4.161-3.822a3.69,3.69,0,0,1,3.66-3.851A3.207,3.207,0,0,1,218.38,178.339Zm-5.356-.325h3.689a1.612,1.612,0,0,0-1.726-1.624A1.935,1.935,0,0,0,213.024,178.014Z" fill="#995eba"/>
      <path id="Trazado_79" data-name="Trazado 79" d="M220.061,175.151h1.652v.9l.089.029A3.276,3.276,0,0,1,224.384,175c1.461,0,2.671,1.048,2.671,3.1v4.427H225.4v-4.367a1.553,1.553,0,0,0-1.609-1.772,2.435,2.435,0,0,0-2.081,1v5.135h-1.652Z" fill="#995eba"/>
      <path id="Trazado_80" data-name="Trazado 80" d="M228.189,175.151h1.137v-2.36h1.652v2.36h2.007v1.328h-2.007v3.439a1.082,1.082,0,0,0,1.151,1.239,2.787,2.787,0,0,0,1.047-.162l.3,1.3a3.533,3.533,0,0,1-1.52.31,2.469,2.469,0,0,1-2.626-2.627v-3.5h-1.137Z" fill="#995eba"/>
      <path id="Trazado_81" data-name="Trazado 81" d="M234.813,175.151h1.652v.842l.089.029a2.761,2.761,0,0,1,2.14-1.018h.206v1.505h-.354a2.868,2.868,0,0,0-2.081.871v5.164h-1.652Z" fill="#995eba"/>
      <path id="Trazado_82" data-name="Trazado 82" d="M243.384,175a3.838,3.838,0,1,1-3.954,3.837A3.851,3.851,0,0,1,243.384,175Zm0,6.286a2.455,2.455,0,1,0-2.3-2.449A2.344,2.344,0,0,0,243.384,181.29Z" fill="#995eba"/>
      <path id="Trazado_83" data-name="Trazado 83" d="M257.74,175.609v-3.851h1.652v10.771H257.74v-.635l-.089-.029a2.973,2.973,0,0,1-2.169.812,3.683,3.683,0,0,1-3.556-3.836,3.746,3.746,0,0,1,3.7-3.837A3.479,3.479,0,0,1,257.74,175.609Zm0,4.766v-3.527a3.676,3.676,0,0,0-1.9-.458,2.458,2.458,0,0,0,0,4.9A2.152,2.152,0,0,0,257.74,180.375Z" fill="#995eba"/>
      <path id="Trazado_84" data-name="Trazado 84" d="M267.978,178.339v.885h-5.43c.119,1.372.9,2.036,2.494,2.066a5.174,5.174,0,0,0,2.168-.443l.311,1.254a5.554,5.554,0,0,1-2.479.576c-2.479,0-4.162-1.447-4.162-3.822A3.691,3.691,0,0,1,264.541,175,3.208,3.208,0,0,1,267.978,178.339Zm-5.356-.325h3.689a1.613,1.613,0,0,0-1.727-1.624A1.934,1.934,0,0,0,262.622,178.014Z" fill="#995eba"/>
      <path id="Trazado_85" data-name="Trazado 85" d="M273.126,172.2h3.7c2.567,0,3.954,1.4,3.954,3.217s-1.387,3.217-3.954,3.217h-2.051v3.9h-1.653Zm1.653,1.388v3.659h2.051c1.564,0,2.3-.768,2.3-1.83,0-1.032-.737-1.829-2.3-1.829Z" fill="#995eba"/>
      <path id="Trazado_86" data-name="Trazado 86" d="M287.3,175.7l.074-.029v-.517h1.653v7.378h-1.653v-.753l-.088-.029a2.992,2.992,0,0,1-2.288.93,3.683,3.683,0,0,1-3.555-3.836,3.745,3.745,0,0,1,3.7-3.837A3.182,3.182,0,0,1,287.3,175.7Zm.074,4.471V177.01a3.334,3.334,0,0,0-2.021-.62,2.458,2.458,0,0,0,0,4.9A2.14,2.14,0,0,0,287.378,180.168Z" fill="#995eba"/>
      <path id="Trazado_87" data-name="Trazado 87" d="M291.316,175.151h1.652v.842l.089.029A2.761,2.761,0,0,1,295.2,175h.206v1.505h-.354a2.868,2.868,0,0,0-2.081.871v5.164h-1.652Z" fill="#995eba"/>
      <path id="Trazado_88" data-name="Trazado 88" d="M301.791,175.7l.074-.029v-.517h1.652v7.378h-1.652v-.753l-.089-.029a2.99,2.99,0,0,1-2.287.93,3.683,3.683,0,0,1-3.556-3.836,3.746,3.746,0,0,1,3.7-3.837A3.186,3.186,0,0,1,301.791,175.7Zm.074,4.471V177.01a3.335,3.335,0,0,0-2.022-.62,2.458,2.458,0,0,0,0,4.9A2.143,2.143,0,0,0,301.865,180.168Zm-1.771-8.248h1.727l-1.639,2.125H298.8Z" fill="#995eba"/>
      <path id="Trazado_89" data-name="Trazado 89" d="M308.428,182.662c-1.711,0-2.626-.812-2.626-2.361v-8.543h1.653v8.425c0,.679.443.989,1.122,1.033Z" fill="#995eba"/>
      <path id="Trazado_90" data-name="Trazado 90" d="M311.232,172.1a.84.84,0,1,1-.944.841A.874.874,0,0,1,311.232,172.1Zm-.812,3.054h1.653v7.378H310.42Z" fill="#995eba"/>
      <path id="Trazado_91" data-name="Trazado 91" d="M314.448,180.817a6.27,6.27,0,0,0,2.11.443c.708,0,1.343-.265,1.343-.885,0-.457-.3-.753-1.373-1-1.4-.325-2.361-.989-2.361-2.14,0-1.49,1.329-2.228,2.774-2.228a6,6,0,0,1,2.361.531l-.309,1.313a5.64,5.64,0,0,0-1.993-.442c-.62,0-1.18.28-1.18.826,0,.384.28.694,1.3.915,1.505.324,2.42.974,2.42,2.2,0,1.58-1.4,2.317-2.908,2.317a7.149,7.149,0,0,1-2.507-.487Z" fill="#995eba"/>
      <path id="Trazado_92" data-name="Trazado 92" d="M322.356,172.1a.84.84,0,1,1-.944.841A.874.874,0,0,1,322.356,172.1Zm-.812,3.054H323.2v7.378h-1.653Z" fill="#995eba"/>
      <path id="Trazado_93" data-name="Trazado 93" d="M325.572,180.817a6.27,6.27,0,0,0,2.11.443c.708,0,1.343-.265,1.343-.885,0-.457-.3-.753-1.373-1-1.4-.325-2.36-.989-2.36-2.14,0-1.49,1.328-2.228,2.773-2.228a6,6,0,0,1,2.361.531l-.309,1.313a5.639,5.639,0,0,0-1.992-.442c-.621,0-1.181.28-1.181.826,0,.384.28.694,1.3.915,1.5.324,2.42.974,2.42,2.2,0,1.58-1.4,2.317-2.908,2.317a7.149,7.149,0,0,1-2.507-.487Z" fill="#995eba"/>
      <path id="Trazado_94" data-name="Trazado 94" d="M340.562,181.29a5.477,5.477,0,0,0,2.14-.34l.353,1.313a6.367,6.367,0,0,1-2.493.414,5.314,5.314,0,0,1,0-10.625,6.113,6.113,0,0,1,2.493.429l-.353,1.3a6.211,6.211,0,0,0-2.14-.339,3.741,3.741,0,0,0-3.541,3.925A3.661,3.661,0,0,0,340.562,181.29Z" fill="#995eba"/>
      <path id="Trazado_95" data-name="Trazado 95" d="M350.993,178.339v.885h-5.43c.118,1.372.9,2.036,2.493,2.066a5.182,5.182,0,0,0,2.169-.443l.311,1.254a5.556,5.556,0,0,1-2.48.576c-2.478,0-4.161-1.447-4.161-3.822a3.69,3.69,0,0,1,3.66-3.851A3.208,3.208,0,0,1,350.993,178.339Zm-5.357-.325h3.69a1.614,1.614,0,0,0-1.727-1.624A1.936,1.936,0,0,0,345.636,178.014Z" fill="#995eba"/>
      <path id="Trazado_96" data-name="Trazado 96" d="M352.673,175.151h1.653v.842l.089.029A2.76,2.76,0,0,1,356.554,175h.206v1.505h-.353a2.864,2.864,0,0,0-2.081.871v5.164h-1.653Z" fill="#995eba"/>
      <path id="Trazado_97" data-name="Trazado 97" d="M364.461,178.339v.885h-5.429c.118,1.372.9,2.036,2.493,2.066a5.182,5.182,0,0,0,2.169-.443L364,182.1a5.551,5.551,0,0,1-2.479.576c-2.479,0-4.161-1.447-4.161-3.822a3.69,3.69,0,0,1,3.66-3.851A3.207,3.207,0,0,1,364.461,178.339Zm-5.356-.325h3.689a1.612,1.612,0,0,0-1.726-1.624A1.935,1.935,0,0,0,359.105,178.014Z" fill="#995eba"/>
      <path id="Trazado_98" data-name="Trazado 98" d="M367.647,181.865l-.222.664h-1.283V171.758h1.652V175.9l.089.029a2.957,2.957,0,0,1,2.273-.929,3.683,3.683,0,0,1,3.555,3.837,3.745,3.745,0,0,1-3.7,3.836A3.31,3.31,0,0,1,367.647,181.865Zm.147-4.382v3.29a3.514,3.514,0,0,0,2.007.517,2.458,2.458,0,0,0,0-4.9A2.149,2.149,0,0,0,367.794,177.483Z" fill="#995eba"/>
      <path id="Trazado_99" data-name="Trazado 99" d="M375.318,175.151h1.652v.842l.089.029A2.761,2.761,0,0,1,379.2,175h.206v1.505h-.354a2.866,2.866,0,0,0-2.081.871v5.164h-1.652Z" fill="#995eba"/>
      <path id="Trazado_100" data-name="Trazado 100" d="M385.793,175.7l.075-.029v-.517h1.652v7.378h-1.652v-.753l-.089-.029a2.989,2.989,0,0,1-2.287.93,3.683,3.683,0,0,1-3.556-3.836,3.746,3.746,0,0,1,3.7-3.837A3.182,3.182,0,0,1,385.793,175.7Zm.075,4.471V177.01a3.335,3.335,0,0,0-2.022-.62,2.458,2.458,0,0,0,0,4.9A2.143,2.143,0,0,0,385.868,180.168Z" fill="#995eba"/>
      <path id="Trazado_101" data-name="Trazado 101" d="M392.431,182.662c-1.711,0-2.626-.812-2.626-2.361v-8.543h1.653v8.425c0,.679.443.989,1.122,1.033Z" fill="#995eba"/>
    </g>
    <g id="Grupo_60" data-name="Grupo 60">
      <g id="Grupo_59" data-name="Grupo 59">
        <path id="Trazado_102" data-name="Trazado 102" d="M250.737,158.7a3.263,3.263,0,0,1-3.176-3.3V126.92a3.094,3.094,0,0,1,3.094-3.094h16.681a14.287,14.287,0,0,1,.046,28.573H256.948a3.2,3.2,0,0,0-3.2,3.2h0A3.063,3.063,0,0,1,250.737,158.7Z" fill="#995eba"/>
        <path id="Trazado_103" data-name="Trazado 103" d="M253.747,146.287h13.589a8.178,8.178,0,0,0,.046-16.348H253.747Z" fill="#fff"/>
      </g>
      <path id="Trazado_104" data-name="Trazado 104" d="M225.528,158.7a17.952,17.952,0,1,1,15.116-27.376,2.889,2.889,0,0,1,.454,1.626,3.094,3.094,0,0,1-5.7,1.682,11.587,11.587,0,0,0-9.873-5.723,11.842,11.842,0,1,0,9.958,17.854,3.149,3.149,0,0,1,2.659-1.506,3.111,3.111,0,0,1,2.613,4.77A17.792,17.792,0,0,1,225.528,158.7Zm11.634-10.93c-.006.011-.014.023-.022.038A.372.372,0,0,0,237.162,147.773Zm-.132-14.223a.755.755,0,0,0,.041.067Z" fill="#995eba"/>
      <path id="Trazado_105" data-name="Trazado 105" d="M302.81,158.7a17.952,17.952,0,1,1,15.117-27.376,2.889,2.889,0,0,1,.454,1.626,3.094,3.094,0,0,1-5.7,1.682,11.588,11.588,0,0,0-9.874-5.723,11.842,11.842,0,1,0,9.959,17.854,3.148,3.148,0,0,1,2.658-1.506,3.111,3.111,0,0,1,2.614,4.77A17.792,17.792,0,0,1,302.81,158.7Zm11.635-10.93c-.006.011-.014.023-.023.038A.258.258,0,0,0,314.445,147.773Zm-.133-14.223a.756.756,0,0,0,.042.067C314.339,133.6,314.327,133.573,314.312,133.55Z" fill="#995eba"/>
    </g>
    <g id="Grupo_61" data-name="Grupo 61">
      <path id="Trazado_106" data-name="Trazado 106" d="M346.339,154.758a19.694,19.694,0,0,1-18.663-13.548,3.227,3.227,0,1,1,6.133-2.01,13.207,13.207,0,0,0,25.1-8.226,3.227,3.227,0,1,1,6.132-2.011,19.689,19.689,0,0,1-18.7,25.795Z" fill="#0fae73"/>
    </g>
    <circle id="Elipse_3" data-name="Elipse 3" cx="7.897" cy="7.897" r="7.897" transform="translate(337.147 123.176)" fill="#f28c0f"/>
    <g id="Grupo_62" data-name="Grupo 62">
      <path id="Trazado_107" data-name="Trazado 107" d="M374.489,153.607a17.609,17.609,0,0,1-15.913-25.094,3.227,3.227,0,1,1,5.841,2.743,11.157,11.157,0,0,0,20.2,9.483,3.227,3.227,0,1,1,5.842,2.743A17.638,17.638,0,0,1,374.489,153.607Z" fill="#91bbf2"/>
    </g>
    <circle id="Elipse_4" data-name="Elipse 4" cx="5.447" cy="5.447" r="5.447" transform="translate(370.423 127.562)" fill="#f2490c"/>
  </g>
</svg>
